<svg xmlns="http://www.w3.org/2000/svg" viewBox="0 0 1024 1024"><title>NX People app icon</title><rect x="0" y="0" width="1024" height="1024" rx="0" fill="#2E201E" /><g transform="rotate(-20 512 760)"><rect x="280" y="228" width="456" height="568" rx="55" fill="#EBA99B" /></g><g transform="rotate(-10 512 760)"><rect x="280" y="228" width="456" height="568" rx="55" fill="#FBE4DB" /></g><g transform="rotate(0 512 760)"><rect x="280" y="228" width="456" height="568" rx="55" fill="#BC6552" /></g><rect x="714" y="340" width="47" height="80" rx="13" fill="#FBE4DB" /><rect x="714" y="449" width="47" height="80" rx="13" fill="#EBA99B" /><rect x="714" y="558" width="47" height="80" rx="13" fill="#FBE4DB" /><path d="M333 228V796H326Q280 796 280 741V283Q280 228 333 228Z" fill="#914B41" /><circle cx="530" cy="437" r="66" fill="#FFF7F0"/><path d="M408 662V632Q408 530 530 530Q652 530 652 632V662Z" fill="#FFF7F0" /></svg>